<?xml version="1.0" encoding="UTF-8" standalone="no"?>
<!-- Created with Inkscape (http://www.inkscape.org/) -->

<svg
   width="210mm"
   height="297mm"
   viewBox="0 0 210 297"
   version="1.1"
   id="svg1"
   inkscape:version="1.3.2 (091e20ef0f, 2023-11-25, custom)"
   sodipodi:docname="Geek.svg"
   xmlns:inkscape="http://www.inkscape.org/namespaces/inkscape"
   xmlns:sodipodi="http://sodipodi.sourceforge.net/DTD/sodipodi-0.dtd"
   xmlns="http://www.w3.org/2000/svg"
   xmlns:svg="http://www.w3.org/2000/svg">
  <sodipodi:namedview
     id="namedview1"
     pagecolor="#ffffff"
     bordercolor="#000000"
     borderopacity="0.25"
     inkscape:showpageshadow="2"
     inkscape:pageopacity="0.0"
     inkscape:pagecheckerboard="0"
     inkscape:deskcolor="#d1d1d1"
     inkscape:document-units="mm"
     inkscape:zoom="0.66640559"
     inkscape:cx="312.87253"
     inkscape:cy="444.17395"
     inkscape:window-width="1920"
     inkscape:window-height="1043"
     inkscape:window-x="0"
     inkscape:window-y="0"
     inkscape:window-maximized="1"
     inkscape:current-layer="g4" />
  <defs
     id="defs1" />
  <g
     inkscape:label="Layer 1"
     inkscape:groupmode="layer"
     id="layer1">
    <g
       fill="#000000"
       fill-opacity="1"
       id="g4"
       transform="matrix(17.7749 0 0 17.7749 19.2921 31.415)">
      <g
         inkscape:label=""
         transform="matrix(0.056259,0,0,0.056259,6.6851581,2.9536714)"
         id="g3"
         style="stroke-width:0.2;stroke-dasharray:none">
        <g
           fill="#000000"
           fill-opacity="1"
           id="g2"
           transform="matrix(0.352778,0,0,0.352778,-0.901524,-0.703086)"
           style="stroke-width:0.56693;stroke-dasharray:none">
          <g
             id="g1"
             transform="matrix(25.892814,0,0,25.892814,-215.00963,-30.683249)"
             style="fill:none;stroke:#000000;stroke-width:0.0218953;stroke-dasharray:none;stroke-opacity:1">
            <path
               d="m 4.203125,5.328125 -3.546875,4.375 C 0.578125,9.796875 0.5625,9.8125 0.5625,9.859375 c 0,0.109375 0.09375,0.109375 0.28125,0.109375 h 8.25 L 9.953125,7.484375 h -0.25 C 9.453125,8.234375 8.796875,8.84375 7.9375,9.125 7.78125,9.1875 7.09375,9.421875 5.625,9.421875 H 1.390625 l 3.46875,-4.28125 C 4.921875,5.046875 4.9375,5.03125 4.9375,4.984375 4.9375,4.9375 4.9375,4.9375 4.875,4.84375 L 1.640625,0.40625 h 3.9375 c 1.140625,0 3.4375,0.0625 4.125,1.921875 h 0.25 L 9.09375,0 h -8.25 C 0.5625,0 0.5625,0.015625 0.5625,0.3125 Z m 0,0"
               id="path1"
               style="fill:none;stroke:#000000;stroke-width:0.0218953;stroke-dasharray:none;stroke-opacity:1" />
          </g>
        </g>
      </g>
      <rect
         style="fill:none;fill-opacity:1;stroke:#000000;stroke-width:0.0112518;stroke-miterlimit:4.7;stroke-dasharray:none;stroke-opacity:1;paint-order:markers stroke fill"
         id="rect4"
         width="8.3354692"
         height="7.6647182"
         x="0.90259916"
         y="0.98001921"
         ry="0.8197844" />
    </g>
  </g>
</svg>
